<svg width="43" height="10" viewBox="0 0 43 10" fill="none" xmlns="http://www.w3.org/2000/svg">
<path d="M2.94167 9.06667C2.48611 9.06667 2.06944 8.95278 1.69167 8.725C1.31389 8.49167 1.01111 8.18056 0.783333 7.79167C0.561111 7.40278 0.45 6.97222 0.45 6.5C0.45 6.02778 0.561111 5.59722 0.783333 5.20833C1.01111 4.81944 1.31389 4.51111 1.69167 4.28333C2.06944 4.05 2.48611 3.93333 2.94167 3.93333C3.26944 3.93333 3.57778 3.99167 3.86667 4.10833C4.15556 4.225 4.41111 4.38611 4.63333 4.59167V1H5.53333V9H4.7V8.34167C4.47778 8.56389 4.21389 8.74167 3.90833 8.875C3.60833 9.00278 3.28611 9.06667 2.94167 9.06667ZM3.05833 8.25C3.375 8.25 3.66111 8.17222 3.91667 8.01667C4.17778 7.85556 4.38333 7.64444 4.53333 7.38333C4.68889 7.11667 4.76667 6.82222 4.76667 6.5C4.76667 6.17778 4.68889 5.88611 4.53333 5.625C4.38333 5.35833 4.17778 5.14722 3.91667 4.99167C3.66111 4.83056 3.375 4.75 3.05833 4.75C2.74167 4.75 2.45278 4.83056 2.19167 4.99167C1.93611 5.14722 1.73056 5.35833 1.575 5.625C1.425 5.88611 1.35 6.17778 1.35 6.5C1.35 6.82222 1.425 7.11667 1.575 7.38333C1.73056 7.64444 1.93611 7.85556 2.19167 8.01667C2.45278 8.17222 2.74167 8.25 3.05833 8.25ZM9.26979 9.06667C8.81424 9.06667 8.39757 8.95278 8.01979 8.725C7.64201 8.49167 7.33924 8.18056 7.11146 7.79167C6.88924 7.40278 6.77813 6.97222 6.77813 6.5C6.77813 6.02778 6.88924 5.59722 7.11146 5.20833C7.33924 4.81944 7.64201 4.51111 8.01979 4.28333C8.39757 4.05 8.81424 3.93333 9.26979 3.93333C9.61424 3.93333 9.93646 3.99722 10.2365 4.125C10.542 4.25278 10.8059 4.43056 11.0281 4.65833V4H11.8615V9H11.0281V8.34167C10.8059 8.56389 10.542 8.74167 10.2365 8.875C9.93646 9.00278 9.61424 9.06667 9.26979 9.06667ZM9.38646 8.25C9.70312 8.25 9.98924 8.17222 10.2448 8.01667C10.5059 7.85556 10.7115 7.64444 10.8615 7.38333C11.017 7.11667 11.0948 6.82222 11.0948 6.5C11.0948 6.17778 11.017 5.88611 10.8615 5.625C10.7115 5.35833 10.5059 5.14722 10.2448 4.99167C9.98924 4.83056 9.70312 4.75 9.38646 4.75C9.06979 4.75 8.7809 4.83056 8.51979 4.99167C8.26424 5.14722 8.05868 5.35833 7.90313 5.625C7.75313 5.88611 7.67813 6.17778 7.67813 6.5C7.67813 6.82222 7.75313 7.11667 7.90313 7.38333C8.05868 7.64444 8.26424 7.85556 8.51979 8.01667C8.7809 8.17222 9.06979 8.25 9.38646 8.25ZM13.4563 9V4H14.2896V4.91667C14.4674 4.62222 14.7035 4.38889 14.9979 4.21667C15.2924 4.03889 15.6424 3.95 16.0479 3.95L16.2729 4.85C16.1674 4.81667 16.0451 4.8 15.9063 4.8C15.4396 4.8 15.0646 4.95 14.7813 5.25C14.4979 5.54444 14.3562 5.96667 14.3562 6.51667V9H13.4563ZM17.7896 9V4.75H16.6563V4H17.8146V2.56667C17.8146 2.02222 17.9757 1.60833 18.2979 1.325C18.6201 1.04167 19.0035 0.9 19.4479 0.9C19.6146 0.9 19.784 0.919444 19.9563 0.958333C20.134 0.997222 20.3007 1.06389 20.4563 1.15833L20.2396 2.03333C20.0063 1.77778 19.734 1.65 19.4229 1.65C19.234 1.65 19.059 1.71389 18.8979 1.84167C18.7424 1.96944 18.6646 2.21667 18.6646 2.58333V4H19.9063V4.75H18.6896V9H17.7896Z" fill="#C34D5D"/>
<path d="M22.3479 9.16667C22.009 9.16667 21.6646 9.11111 21.3146 9C20.9701 8.88889 20.7007 8.73889 20.5063 8.55L20.8646 7.18333C21.0257 7.40556 21.2479 7.6 21.5313 7.76667C21.8201 7.93333 22.1174 8.01667 22.4229 8.01667C22.6285 8.01667 22.7757 7.97778 22.8646 7.9C22.959 7.82222 23.0063 7.72778 23.0063 7.61667C23.0063 7.48889 22.959 7.39722 22.8646 7.34167C22.7701 7.28056 22.6729 7.23056 22.5729 7.19167L21.8729 6.925C21.7174 6.86389 21.5396 6.78056 21.3396 6.675C21.1396 6.56944 20.9646 6.41944 20.8146 6.225C20.6701 6.03056 20.5979 5.775 20.5979 5.45833C20.5979 5.16944 20.6701 4.90278 20.8146 4.65833C20.959 4.41389 21.1674 4.21667 21.4396 4.06667C21.7174 3.91111 22.0507 3.83333 22.4396 3.83333C22.8007 3.83333 23.1368 3.89444 23.4479 4.01667C23.7646 4.13889 23.9951 4.275 24.1396 4.425L23.8063 5.74167C23.6174 5.49722 23.3924 5.31111 23.1313 5.18333C22.8757 5.05 22.6313 4.98333 22.3979 4.98333C22.2201 4.98333 22.0896 5.01944 22.0063 5.09167C21.9229 5.16389 21.8812 5.24722 21.8812 5.34167C21.8812 5.41389 21.909 5.48611 21.9646 5.55833C22.0257 5.625 22.1257 5.68611 22.2646 5.74167L22.9146 5.98333C23.1035 6.05 23.3035 6.13889 23.5146 6.25C23.7313 6.36111 23.9146 6.51667 24.0646 6.71667C24.2146 6.91111 24.2896 7.18056 24.2896 7.525C24.2896 8.00833 24.109 8.40278 23.7479 8.70833C23.3924 9.01389 22.9257 9.16667 22.3479 9.16667ZM25.7076 9V5.15H24.7742V4H25.7326V2.33333H27.1326V4H28.1242V5.15H27.1576V9H25.7076ZM30.8781 9.13333C30.417 9.13333 29.9976 9.01389 29.6198 8.775C29.242 8.53611 28.9392 8.21944 28.7115 7.825C28.4892 7.425 28.3781 6.98333 28.3781 6.5C28.3781 6.01667 28.4892 5.575 28.7115 5.175C28.9392 4.775 29.242 4.45833 29.6198 4.225C29.9976 3.98611 30.417 3.86667 30.8781 3.86667C31.2003 3.86667 31.4948 3.925 31.7615 4.04167C32.0281 4.15278 32.2559 4.30833 32.4448 4.50833V4H33.6948V9H32.4448V8.49167C32.2559 8.69167 32.0281 8.85 31.7615 8.96667C31.4948 9.07778 31.2003 9.13333 30.8781 9.13333ZM31.0531 7.85833C31.2976 7.85833 31.5198 7.79722 31.7198 7.675C31.9198 7.55278 32.0781 7.38889 32.1948 7.18333C32.317 6.97778 32.3781 6.75 32.3781 6.5C32.3781 6.25 32.317 6.02222 32.1948 5.81667C32.0781 5.61111 31.9198 5.44722 31.7198 5.325C31.5198 5.20278 31.2976 5.14167 31.0531 5.14167C30.8087 5.14167 30.5865 5.20278 30.3865 5.325C30.1865 5.44722 30.0253 5.61111 29.9031 5.81667C29.7865 6.02222 29.7281 6.25 29.7281 6.5C29.7281 6.75 29.7865 6.97778 29.9031 7.18333C30.0253 7.38889 30.1865 7.55278 30.3865 7.675C30.5865 7.79722 30.8087 7.85833 31.0531 7.85833ZM35.3755 9V5.15H34.4422V4H35.4005V2.33333H36.8005V4H37.7922V5.15H36.8255V9H35.3755ZM40.1839 9.16667C39.845 9.16667 39.5005 9.11111 39.1505 9C38.8061 8.88889 38.5366 8.73889 38.3422 8.55L38.7005 7.18333C38.8616 7.40556 39.0839 7.6 39.3672 7.76667C39.6561 7.93333 39.9533 8.01667 40.2589 8.01667C40.4644 8.01667 40.6116 7.97778 40.7005 7.9C40.795 7.82222 40.8422 7.72778 40.8422 7.61667C40.8422 7.48889 40.795 7.39722 40.7005 7.34167C40.6061 7.28056 40.5089 7.23056 40.4089 7.19167L39.7089 6.925C39.5533 6.86389 39.3755 6.78056 39.1755 6.675C38.9755 6.56944 38.8005 6.41944 38.6505 6.225C38.5061 6.03056 38.4339 5.775 38.4339 5.45833C38.4339 5.16944 38.5061 4.90278 38.6505 4.65833C38.795 4.41389 39.0033 4.21667 39.2755 4.06667C39.5533 3.91111 39.8866 3.83333 40.2755 3.83333C40.6366 3.83333 40.9727 3.89444 41.2839 4.01667C41.6005 4.13889 41.8311 4.275 41.9755 4.425L41.6422 5.74167C41.4533 5.49722 41.2283 5.31111 40.9672 5.18333C40.7116 5.05 40.4672 4.98333 40.2339 4.98333C40.0561 4.98333 39.9255 5.01944 39.8422 5.09167C39.7589 5.16389 39.7172 5.24722 39.7172 5.34167C39.7172 5.41389 39.745 5.48611 39.8005 5.55833C39.8616 5.625 39.9616 5.68611 40.1005 5.74167L40.7505 5.98333C40.9394 6.05 41.1394 6.13889 41.3505 6.25C41.5672 6.36111 41.7505 6.51667 41.9005 6.71667C42.0505 6.91111 42.1255 7.18056 42.1255 7.525C42.1255 8.00833 41.945 8.40278 41.5839 8.70833C41.2283 9.01389 40.7616 9.16667 40.1839 9.16667Z" fill="#CC4242"/>
</svg>
